<?xml version="1.0" standalone="no"?><!DOCTYPE svg PUBLIC "-//W3C//DTD SVG 1.1//EN" "http://www.w3.org/Graphics/SVG/1.1/DTD/svg11.dtd"><svg t="1524451961777" class="icon" style="" viewBox="0 0 1024 1024" version="1.1" xmlns="http://www.w3.org/2000/svg" p-id="6475" xmlns:xlink="http://www.w3.org/1999/xlink" width="200" height="200"><defs><style type="text/css"></style></defs><path d="M512 0L195.8912 182.5024 512 365.0048l316.1088-182.5024z" fill="#3AAEDA" p-id="6476"></path><path d="M195.8912 182.5024v365.0048L512 730.0096V365.0048z" fill="#79C3E0" p-id="6477"></path><path d="M512 365.0048v365.0048l316.1088-182.5024V182.5024z" fill="#26A1C6" p-id="6478"></path><path d="M0 768h1024v256H0z" fill="#F9C82D" p-id="6479"></path><path d="M127.36 888.2176a24.064 24.064 0 0 0 48.0768 0v-120.192H127.36v120.192zM247.552 816.1024a24.064 24.064 0 0 0 48.0768 0v-48.0768H247.552v48.0768zM367.744 768.0256v120.192a24.064 24.064 0 0 0 48.0768 0v-120.192h-48.0768zM487.9616 768l0.0256 48.0768a24.0128 24.0128 0 1 0 48.0512 0.0256V768h-48.0768zM608.1536 768.0256l-0.0256 120.192a24.064 24.064 0 0 0 48.1024-0.0256V768l-48.0768 0.0256zM848.5632 768.0256l-0.0256 120.192c0 13.2864 10.752 24.0384 24.064 24.0128a23.9872 23.9872 0 0 0 24.0128-24.0128l0.0256-120.192h-48.0768zM728.3712 768l-0.0256 48.1024a24.064 24.064 0 0 0 48.0512-0.0256V768h-48.0256z" fill="#292F33" p-id="6480"></path></svg>