<?xml version="1.0" standalone="no"?><!DOCTYPE svg PUBLIC "-//W3C//DTD SVG 1.1//EN" "http://www.w3.org/Graphics/SVG/1.1/DTD/svg11.dtd"><svg t="1524883315873" class="icon" style="" viewBox="0 0 1024 1024" version="1.1" xmlns="http://www.w3.org/2000/svg" p-id="2642" xmlns:xlink="http://www.w3.org/1999/xlink" width="128" height="128"><defs><style type="text/css"></style></defs><path d="M126.8 360.1h769.1v588.7H126.8z" fill="#83C6EF" p-id="2643"></path><path d="M511.3 360.1h384.5v588.7H511.3zM951 304H71.7l72.5-173.6h734.3z" fill="#429BCF" p-id="2644"></path><path d="M511.3 304H951l-72.5-173.6H511.3z" fill="#1A7FC0" p-id="2645"></path><path d="M212.8 302.7l-21.6-11.1 58.9-161.2 21.6 11.2zM809.9 302.7l-59-161.1 21.7-11.2 58.9 161.2zM369.3 299.8l-23.1-5.4 27.2-161.1 23.1 5.4zM653.3 299.8l-27.2-161.1 23.1-5.4 27.2 161.1zM499.5 136h23.6v161.1h-23.6z" fill="#2D416C" p-id="2646"></path><path d="M919.3 284.6c45.1 0 81.6 36.5 81.6 81.6s-36.5 81.6-81.6 81.6-81.6-36.5-81.6-81.6c0 45.1-36.5 81.6-81.6 81.6s-81.6-36.5-81.6-81.6c0 45.1-36.5 81.6-81.6 81.6s-81.6-36.5-81.6-81.6c0 45.1-36.5 81.6-81.6 81.6s-81.6-36.5-81.6-81.6c0 45.1-36.5 81.6-81.6 81.6S185 411.2 185 366.1c0 45.1-36.5 81.6-81.6 81.6s-81.6-36.5-81.6-81.6 36.5-81.6 81.6-81.6H917" fill="#F9C85D" p-id="2647"></path><path d="M920.2 148.6H102.5c-0.7 0-1.3-0.6-1.3-1.3V86.5c0-0.7 0.6-1.3 1.3-1.3h817.7c0.7 0 1.3 0.6 1.3 1.3v60.8c0 0.7-0.6 1.3-1.3 1.3z" fill="#1A7FC0" p-id="2648"></path><path d="M204.6 592.2h212.1v317.3H204.6z" fill="#D2EDF7" p-id="2649"></path><path d="M241.8 775.2m-14.7 0a14.7 14.7 0 1 0 29.4 0 14.7 14.7 0 1 0-29.4 0Z" fill="#DA3329" p-id="2650"></path><path d="M567 621.1h232.3v121.3H567z" fill="#F9C85D" p-id="2651"></path><path d="M801.6 775.2H564.8c-9.1 0-16.4-7.4-16.4-16.4 0-9.1 7.4-16.4 16.4-16.4h236.8c9.1 0 16.4 7.4 16.4 16.4 0 9.1-7.3 16.4-16.4 16.4z" fill="#2D416C" p-id="2652"></path><path d="M683.2 621.1h116.2v121.3H683.2z" fill="#FFB103" p-id="2653"></path><path d="M919.3 284.6h-408v81.6c0 45.1 36.5 81.6 81.6 81.6 45.1 0 81.6-36.5 81.6-81.6 0 45.1 36.5 81.6 81.6 81.6s81.6-36.5 81.6-81.6c0 45.1 36.5 81.6 81.6 81.6 45.1 0 81.6-36.5 81.6-81.6s-36.6-81.6-81.6-81.6z" fill="#FFB103" p-id="2654"></path><path d="M889.8 85.1H511.3v63.5h378.5c17.5 0 31.7-14.3 31.7-31.7s-14.2-31.8-31.7-31.8z" fill="#2D416C" p-id="2655"></path><path d="M431.5 918.3H189.8c-4.9 0-8.8-4-8.8-8.8 0-4.9 4-8.8 8.8-8.8h241.6c4.9 0 8.8 4 8.8 8.8 0.1 4.8-3.8 8.8-8.7 8.8z" fill="#1A7FC0" p-id="2656"></path><path d="M241.8 760.5V790c8.1 0 14.7-6.6 14.7-14.7 0.1-8.2-6.5-14.8-14.7-14.8z" fill="#C11B16" p-id="2657"></path></svg>